<svg xmlns="http://www.w3.org/2000/svg" viewBox="0 0 40 40" width="40" height="40">
  <rect width="40" height="40" rx="10" fill="#fffaf0"/>
  <rect width="40" height="40" rx="10" fill="none" stroke="#e5e5e5" stroke-width="1"/>
  <path
    d="M6 28 C11 25.5 16 25.5 20 27.5 C24 25.5 29 25.5 34 28 V33 C29 30.5 24 30.5 20 32.5 C16 30.5 11 30.5 6 33 Z"
    fill="rgba(255,77,139,0.10)"
    stroke="#0a0a0a"
    stroke-width="1.6"
    stroke-linejoin="round"
  />
  <line x1="20" y1="27.5" x2="20" y2="32.5" stroke="#0a0a0a" stroke-width="1.2"/>
  <path
    d="M28 6 C24 10 19 16 17 22 L15.5 25.5 L19 24 C25 21 29 15 31 9 Z"
    fill="rgba(255,77,139,0.18)"
    stroke="#ff4d8b"
    stroke-width="1.5"
    stroke-linejoin="round"
  />
  <line x1="16.5" y1="24.5" x2="21" y2="18" stroke="#ff4d8b" stroke-width="1"/>
</svg>
